<svg viewBox="0 0 19 20" xmlns="http://www.w3.org/2000/svg">
    <path d="M18.97.891l-.051-.153-.008-.025-.033-.037-.12-.135-.061-.041-.154-.074-.08-.017-.106-.023-.054.013-.089.017-.152.053-.03.01-5.473 3.191-5.514-3.191-.017-.005-.118-.047-.065-.014-.067-.011-.053-.011-.055.013-.072.011-.073.018-.093.039-.036.011-5.797 3.378-.041.037-.117.104-.066.099-.05.102-.03.156-.011.053v13.605l.005.025.035.175.026.073.019.056.055.054.127.125.101.07.196.051.076.02.044-.011c.089-.005.171-.03.245-.066l.034-.008 5.476-3.19 5.513 3.19h.001l.043.014.223.058.056.014.046-.012.236-.063.037-.011.005-.002 5.797-3.378.062-.055.097-.085.066-.098.055-.115.025-.12.017-.085v-13.604l-.009-.043-.021-.105zm-17.4 3.893l4.508-2.628v12.11l-4.508 2.629v-12.11zm5.834-2.605l4.509 2.608v12.113l-4.509-2.608v-12.113zm5.798 2.607l4.508-2.627v12.11l-4.508 2.627v-12.11z" fill="currentColor" />
</svg>
