<svg xmlns="http://www.w3.org/2000/svg" viewBox="0 0 100 100" enable-background="new 0 0 100 100"><path fill="currentColor" d="M36.802 14.126v22.746h-22.746v-22.746h22.746m9.126-9.126h-40.858v40.858h40.858v-40.858zM18.69 18.619h13.619v13.619h-13.619zM54.072 54.142h8.144v8.144h-8.144zM54.072 54.142h8.144v8.144h-8.144zM70.359 54.142h8.144v8.144h-8.144zM86.646 54.142h8.144v8.144h-8.144zM62.215 62.285h8.144v8.144h-8.144zM78.502 62.285h8.144v8.144h-8.144zM54.072 70.429h8.144v8.144h-8.144zM54.072 70.429h8.144v8.144h-8.144zM70.359 70.429h8.144v8.144h-8.144zM86.646 70.429h8.144v8.144h-8.144zM62.215 78.573h8.144v8.144h-8.144zM78.502 78.573h8.144v8.144h-8.144zM54.072 86.716h8.144v8.144h-8.144zM54.072 86.716h8.144v8.144h-8.144zM70.359 86.716h8.144v8.144h-8.144zM86.646 86.716h8.144v8.144h-8.144zM36.802 63.128v22.746h-22.746v-22.746h22.746m9.126-8.986h-40.858v40.858h40.858v-40.858zM18.69 67.761h13.619v13.619h-13.619zM85.803 14.126v22.746h-22.745v-22.746h22.745m9.127-9.126h-40.858v40.858h40.858v-40.858zM67.691 18.619h13.619v13.619h-13.619z"/></svg>
